<?xml version="1.0" encoding="UTF-8"?>
<svg width="137px" height="64px" viewBox="0 0 137 64" version="1.1" xmlns="http://www.w3.org/2000/svg" xmlns:xlink="http://www.w3.org/1999/xlink">
    <!-- Generator: Sketch 46.1 (44463) - http://www.bohemiancoding.com/sketch -->
    <title>Artboard 2 Copy</title>
    <desc>Created with Sketch.</desc>
    <defs></defs>
    <g id="Desktop" stroke="none" stroke-width="1" fill="none" fill-rule="evenodd">
        <g id="Artboard-2-Copy" fill-rule="nonzero" fill="#000000">
            <path d="M34.64,38 C35.9,38 36.58,37.23 36.58,36.19 C36.58,35.38 36.01,34.67 35.29,34.56 C35.91,34.43 36.45,33.86 36.45,33.03 C36.45,32.09 35.78,31.33 34.55,31.33 L31.27,31.33 L31.27,38 L34.64,38 Z M34.32,34.08 L32.44,34.08 L32.44,32.36 L34.32,32.36 C34.91,32.36 35.25,32.73 35.25,33.22 C35.25,33.73 34.91,34.08 34.32,34.08 L34.32,34.08 Z M34.37,36.97 L32.44,36.97 L32.44,35.11 L34.37,35.11 C35.03,35.11 35.38,35.54 35.38,36.04 C35.38,36.62 35,36.97 34.37,36.97 L34.37,36.97 Z M42.33,38 L42.33,36.97 L38.93,36.97 L38.93,35.11 L42.26,35.11 L42.26,34.08 L38.93,34.08 L38.93,32.36 L42.33,32.36 L42.33,31.33 L37.76,31.33 L37.76,38 L42.33,38 Z M45.82,38.12 C47.61,38.12 48.4,37.16 48.4,36.05 C48.4,33.57 44.52,34.34 44.52,33.09 C44.52,32.6 44.96,32.26 45.64,32.26 C46.34,32.26 47.05,32.5 47.58,33.03 L48.24,32.16 C47.63,31.56 46.78,31.22 45.75,31.22 C44.28,31.22 43.32,32.07 43.32,33.18 C43.32,35.63 47.2,34.76 47.2,36.16 C47.2,36.61 46.83,37.08 45.87,37.08 C44.94,37.08 44.21,36.64 43.76,36.15 L43.1,37.06 C43.7,37.68 44.59,38.12 45.82,38.12 L45.82,38.12 Z M52.13,38 L52.13,32.36 L54.15,32.36 L54.15,31.33 L48.94,31.33 L48.94,32.36 L50.96,32.36 L50.96,38 L52.13,38 Z M63.5,38 L63.5,31.33 L62.33,31.33 L62.33,35.95 L58.92,31.33 L57.72,31.33 L57.72,38 L58.89,38 L58.89,33.23 L62.37,38 L63.5,38 Z M69.49,38 L69.49,36.97 L66.09,36.97 L66.09,35.11 L69.42,35.11 L69.42,34.08 L66.09,34.08 L66.09,32.36 L69.49,32.36 L69.49,31.33 L64.92,31.33 L64.92,38 L69.49,38 Z M77.04,38 L78.95,31.33 L77.64,31.33 L76.34,36.46 L74.96,31.33 L74.03,31.33 L72.65,36.46 L71.35,31.33 L70.05,31.33 L71.95,38 L73.2,38 L74.5,33.07 L75.79,38 L77.04,38 Z M88.31,38 L85.69,31.33 L84.23,31.33 L81.61,38 L82.94,38 L83.43,36.71 L86.49,36.71 L86.98,38 L88.31,38 Z M86.16,35.68 L83.76,35.68 L84.96,32.5 L86.16,35.68 Z M90.2,38 L90.2,35.5 L91.97,35.5 C93.36,35.5 94.14,34.55 94.14,33.42 C94.14,32.28 93.37,31.33 91.97,31.33 L89.03,31.33 L89.03,38 L90.2,38 Z M91.81,34.47 L90.2,34.47 L90.2,32.36 L91.81,32.36 C92.47,32.36 92.94,32.78 92.94,33.42 C92.94,34.05 92.47,34.47 91.81,34.47 L91.81,34.47 Z M96.29,38 L96.29,35.5 L98.06,35.5 C99.45,35.5 100.23,34.55 100.23,33.42 C100.23,32.28 99.46,31.33 98.06,31.33 L95.12,31.33 L95.12,38 L96.29,38 Z M97.9,34.47 L96.29,34.47 L96.29,32.36 L97.9,32.36 C98.56,32.36 99.03,32.78 99.03,33.42 C99.03,34.05 98.56,34.47 97.9,34.47 L97.9,34.47 Z M103.5,38.12 C105.29,38.12 106.08,37.16 106.08,36.05 C106.08,33.57 102.2,34.34 102.2,33.09 C102.2,32.6 102.64,32.26 103.32,32.26 C104.02,32.26 104.73,32.5 105.26,33.03 L105.92,32.16 C105.31,31.56 104.46,31.22 103.43,31.22 C101.96,31.22 101,32.07 101,33.18 C101,35.63 104.88,34.76 104.88,36.16 C104.88,36.61 104.51,37.08 103.55,37.08 C102.62,37.08 101.89,36.64 101.44,36.15 L100.78,37.06 C101.38,37.68 102.27,38.12 103.5,38.12 L103.5,38.12 Z M53.49,53 L53.49,46.33 L52.32,46.33 L52.32,50.95 L48.91,46.33 L47.71,46.33 L47.71,53 L48.88,53 L48.88,48.23 L52.36,53 L53.49,53 Z M57.7415384,53.12 C55.7415384,53.12 54.3315384,51.66 54.3315384,49.67 C54.3315384,47.68 55.7415384,46.22 57.7415384,46.22 C59.7315384,46.22 61.1515384,47.68 61.1515384,49.67 C61.1515384,51.66 59.7315384,53.12 57.7415384,53.12 Z M57.7415384,52.08 C59.0815384,52.08 59.9515384,51.04 59.9515384,49.67 C59.9515384,48.29 59.0815384,47.26 57.7415384,47.26 C56.3915384,47.26 55.5315384,48.29 55.5315384,49.67 C55.5315384,51.04 56.3915384,52.08 57.7415384,52.08 Z M65.1730769,53 L63.7130769,53 L61.0930769,46.33 L62.4230769,46.33 L64.4430769,51.72 L66.4630769,46.33 L67.7930769,46.33 L65.1730769,53 Z M75.1361537,53 L75.1361537,51.97 L72.1861537,51.97 C73.9661537,50.62 75.0961537,49.52 75.0961537,48.28 C75.0961537,46.95 73.9761537,46.23 72.6861537,46.23 C71.7461537,46.23 70.8061537,46.58 70.2161537,47.3 L70.8961537,48.06 C71.3261537,47.58 71.9161537,47.27 72.6961537,47.27 C73.3061537,47.27 73.9161537,47.58 73.9161537,48.28 C73.9161537,49.25 72.8961537,50.11 70.3061537,52.07 L70.3061537,53 L75.1361537,53 Z M78.5576922,53.12 C76.6776922,53.12 75.8876922,51.34 75.8876922,49.67 C75.8876922,47.99 76.6776922,46.23 78.5576922,46.23 C80.4276922,46.23 81.2176922,47.99 81.2176922,49.67 C81.2176922,51.34 80.4276922,53.12 78.5576922,53.12 Z M78.5576922,52.08 C79.6376922,52.08 80.0276922,50.94 80.0276922,49.67 C80.0276922,48.39 79.6476922,47.27 78.5576922,47.27 C77.4676922,47.27 77.0776922,48.39 77.0776922,49.67 C77.0776922,50.94 77.4676922,52.08 78.5576922,52.08 Z M84.4392306,53 L84.4392306,46.33 L83.4192306,46.33 L81.4992306,48.27 L82.1792306,48.98 L83.2692306,47.84 L83.2692306,53 L84.4392306,53 Z M88.030769,53.12 C86.070769,53.12 85.280769,51.53 85.280769,49.67 C85.280769,47.75 86.290769,46.23 88.220769,46.23 C89.040769,46.23 89.680769,46.52 90.130769,46.97 L89.590769,47.85 C89.240769,47.49 88.850769,47.27 88.220769,47.27 C87.100769,47.27 86.460769,48.3 86.460769,49.47 L86.460769,49.66 C86.770769,49.21 87.470769,48.72 88.250769,48.72 C89.450769,48.72 90.490769,49.46 90.490769,50.88 C90.490769,52.11 89.520769,53.12 88.030769,53.12 Z M87.960769,52.08 C88.840769,52.08 89.300769,51.45 89.300769,50.92 C89.300769,50.1 88.660769,49.73 87.940769,49.73 C87.370769,49.73 86.810769,50.03 86.480769,50.51 C86.540769,51.23 86.940769,52.08 87.960769,52.08 Z" id="BEST-NEW-APPS"></path>
            <path d="M55.252,20 L51.14,9.328 L48.292,9.328 L44.18,20 L46.756,20 L47.428,18.192 L52.004,18.192 L52.676,20 L55.252,20 Z M51.38,16.192 L48.052,16.192 L49.716,11.6 L51.38,16.192 Z M58.516,20 L58.516,16.192 L61.236,16.192 C63.54,16.192 64.82,14.624 64.82,12.768 C64.82,10.896 63.556,9.328 61.236,9.328 L56.244,9.328 L56.244,20 L58.516,20 Z M60.916,14.192 L58.516,14.192 L58.516,11.328 L60.916,11.328 C61.812,11.328 62.5,11.872 62.5,12.768 C62.5,13.648 61.812,14.192 60.916,14.192 L60.916,14.192 Z M68.516,20 L68.516,16.192 L71.236,16.192 C73.54,16.192 74.82,14.624 74.82,12.768 C74.82,10.896 73.556,9.328 71.236,9.328 L66.244,9.328 L66.244,20 L68.516,20 Z M70.916,14.192 L68.516,14.192 L68.516,11.328 L70.916,11.328 C71.812,11.328 72.5,11.872 72.5,12.768 C72.5,13.648 71.812,14.192 70.916,14.192 L70.916,14.192 Z M82.948,20 L82.948,18 L78.436,18 L78.436,9.328 L76.148,9.328 L76.148,20 L82.948,20 Z M92.036,20 L92.036,18 L86.756,18 L86.756,15.568 L91.924,15.568 L91.924,13.568 L86.756,13.568 L86.756,11.328 L92.036,11.328 L92.036,9.328 L84.484,9.328 L84.484,20 L92.036,20 Z" id="APPLE"></path>
        </g>
    </g>
</svg>