<?xml version="1.0" encoding="utf-8"?>
<!-- Generator: Adobe Illustrator 16.0.0, SVG Export Plug-In . SVG Version: 6.00 Build 0)  -->
<!DOCTYPE svg PUBLIC "-//W3C//DTD SVG 1.1//EN" "http://www.w3.org/Graphics/SVG/1.1/DTD/svg11.dtd">
<svg version="1.1" id="Layer_1" xmlns="http://www.w3.org/2000/svg" xmlns:xlink="http://www.w3.org/1999/xlink" x="0px" y="0px"
	 width="501.454px" height="183.113px" viewBox="0 0 501.454 183.113" enable-background="new 0 0 501.454 183.113"
	 xml:space="preserve">
<rect fill-rule="evenodd" clip-rule="evenodd" fill="#EE5151" width="501.454" height="183.113"/>
<path fill-rule="evenodd" clip-rule="evenodd" fill="#FFFFFF" d="M316.419,123.504c-6.554,0-13.444-1.846-18.15-6.729
	c-5.462-5.854-6.051-11.139-6.051-18.84V60.615h14.117v37.321c0,5.439,2.689,11.645,10.084,11.438
	c7.228,0.207,9.412-5.77,9.412-11.438V60.615h14.117v37.321c0,7.197-0.84,13.488-6.05,18.84
	C329.024,121.574,322.974,123.504,316.419,123.504z"/>
<polygon fill-rule="evenodd" clip-rule="evenodd" fill="#FFFFFF" points="426.734,98.969 407.91,98.969 407.91,122.52 
	393.793,122.52 393.793,60.615 407.91,60.615 407.91,84.838 426.734,84.838 426.734,60.615 440.852,60.615 440.852,122.52 
	426.734,122.52 "/>
<g>
	<defs>
		<rect id="SVGID_1_" x="113.038" y="60.615" width="14.117" height="61.905"/>
	</defs>
	<use xlink:href="#SVGID_1_"  overflow="visible" fill-rule="evenodd" clip-rule="evenodd" fill="#FFFFFF"/>
	<clipPath id="SVGID_2_">
		<use xlink:href="#SVGID_1_"  overflow="visible"/>
	</clipPath>
</g>
<g>
	<defs>
		<path id="SVGID_3_" d="M253.228,74.072v16.149h8.066c5.36,0,10.084-1.854,10.084-8.074c0-6.558-5.313-8.075-10.756-8.075H253.228z
			 M261.967,103.006h-8.739v19.514h-14.118V60.615h21.513c6.135,0,13.781,0.25,18.823,4.711c4.958,3.904,7.396,9.844,7.396,16.149
			c0,5.742-2.186,12.435-6.723,16.148C274.907,102.443,269.11,103.111,261.967,103.006z"/>
	</defs>
	<use xlink:href="#SVGID_3_"  overflow="visible" fill-rule="evenodd" clip-rule="evenodd" fill="#FFFFFF"/>
	<clipPath id="SVGID_4_">
		<use xlink:href="#SVGID_3_"  overflow="visible"/>
	</clipPath>
</g>
<g>
	<defs>
		<polygon id="SVGID_5_" points="74.72,95.604 74.72,122.52 60.603,122.52 60.603,60.615 74.72,60.615 74.72,87.53 92.198,60.615 
			108.333,60.615 88.837,91.567 108.333,122.52 92.198,122.52 		"/>
	</defs>
	<use xlink:href="#SVGID_5_"  overflow="visible" fill-rule="evenodd" clip-rule="evenodd" fill="#FFFFFF"/>
	<clipPath id="SVGID_6_">
		<use xlink:href="#SVGID_5_"  overflow="visible"/>
	</clipPath>
</g>
<polygon fill-rule="evenodd" clip-rule="evenodd" fill="#FFFFFF" points="200.791,95.594 200.791,122.51 186.674,122.51 
	186.674,60.603 200.791,60.603 200.791,87.519 218.27,60.603 234.404,60.603 214.908,91.556 234.404,122.51 218.27,122.51 "/>
<path fill-rule="evenodd" clip-rule="evenodd" fill="#FFFFFF" d="M134.24,103.316c0,12.979,11.164,20.188,23.529,20.188
	c12.313,0,22.48-5.775,23.528-20.859l0,0c0,0-11.265,0-13.644,0c-0.755,5.68-3.773,8.748-9.885,8.748
	c-9.412,0-9.412-7.402-9.412-7.402V79.123c0,0,0-7.401,9.412-7.401c6.111,0,9.13,3.067,9.885,8.748c2.379,0,13.644,0,13.644,0l0,0
	c-1.048-15.084-11.215-20.86-23.528-20.86c-12.365,0-23.529,7.21-23.529,20.188V103.316z"/>
<path fill="#FFFFFF" d="M371.595,85.577c-0.734-0.353-1.509-0.697-2.33-1.062c-4.303-1.912-9.181-4.079-9.181-8.068
	c0-2.927,3.329-5.197,6.193-5.197c4.375,0,7.364,4.241,7.694,7.989h14.434c-0.524-9.483-8.455-19.62-22.077-19.62
	c-5.052,0-10.143,1.353-13.968,4.346c-4.146,3.245-6.431,7.678-6.431,12.482c0,8.097,3.898,13.879,11.585,17.184l1.376,0.59
	c7.487,3.205,14.56,6.232,14.56,10.506c0,3.787-2.369,6.43-5.762,6.43c-4.259,0-6.878-2.666-7.669-7.27h-14.528
	c0.547,10.791,10.178,19.617,21.443,19.617c12.72,0,21.604-7.91,21.604-19.775C388.538,93.709,379.144,89.2,371.595,85.577z"/>
</svg>
