<?xml version="1.0" encoding="UTF-8"?>
<svg width="170px" height="64px" viewBox="0 0 170 64" version="1.1" xmlns="http://www.w3.org/2000/svg" xmlns:xlink="http://www.w3.org/1999/xlink">
    <!-- Generator: Sketch 46.1 (44463) - http://www.bohemiancoding.com/sketch -->
    <title>Artboard Copy</title>
    <desc>Created with Sketch.</desc>
    <defs></defs>
    <g id="Desktop" stroke="none" stroke-width="1" fill="none" fill-rule="evenodd">
        <g id="Artboard-Copy" fill="#000000">
            <path d="M33.7304688,12.6357422 L33.7304688,21 L31.3720703,21 L31.3720703,12.6357422 L28.0908203,12.6357422 L28.0908203,10.3652344 L37.0263672,10.3652344 L37.0263672,12.6357422 L33.7304688,12.6357422 Z M45.0976562,21 L45.0976562,16.7666016 L40.8496094,16.7666016 L40.8496094,21 L38.4765625,21 L38.4765625,10.3652344 L40.8496094,10.3652344 L40.8496094,14.5400391 L45.0976562,14.5400391 L45.0976562,10.3652344 L47.4707031,10.3652344 L47.4707031,21 L45.0976562,21 Z M49.8730469,21 L49.8730469,10.3652344 L56.6113281,10.3652344 L56.6113281,12.6064453 L52.2460938,12.6064453 L52.2460938,14.6279297 L56.2011719,14.6279297 L56.2011719,16.7080078 L52.2460938,16.7080078 L52.2460938,18.7441406 L56.6259766,18.7441406 L56.6259766,21 L49.8730469,21 Z M69.9853516,21 C69.9560545,20.8242179 69.9023441,20.4628934 69.8242188,19.9160156 C69.5996083,20.2578142 69.2382837,20.5605456 68.7402344,20.8242188 C68.2324193,21.0878919 67.6025428,21.2197266 66.8505859,21.2197266 C66.1083947,21.2197266 65.4101595,21.0927747 64.7558594,20.8388672 C64.1015592,20.575194 63.5253931,20.204104 63.0273438,19.7255859 C62.5488257,19.2373022 62.1679702,18.6513706 61.8847656,17.9677734 C61.6015611,17.2939419 61.4599609,16.5371136 61.4599609,15.6972656 C61.4599609,14.847652 61.6064438,14.0859409 61.8994141,13.4121094 C62.1923843,12.7285122 62.5927709,12.1474633 63.1005859,11.6689453 C63.608401,11.1806616 64.1943326,10.8046888 64.8583984,10.5410156 C65.5322299,10.2773424 66.2451134,10.1455078 66.9970703,10.1455078 C67.7587929,10.1455078 68.417966,10.2480458 68.9746094,10.453125 C69.5410185,10.6582042 70.0195293,10.9169906 70.4101562,11.2294922 C70.8105489,11.5419937 71.1328113,11.8935527 71.3769531,12.2841797 C71.6113293,12.6748066 71.7919916,13.0556622 71.9189453,13.4267578 L69.6337891,14.2177734 C69.5947264,14.0615227 69.5166021,13.8759776 69.3994141,13.6611328 C69.282226,13.446288 69.1210948,13.2412119 68.9160156,13.0458984 C68.7011708,12.850585 68.4375016,12.684571 68.125,12.5478516 C67.8124984,12.4208978 67.4365256,12.3574219 66.9970703,12.3574219 C66.6357404,12.3574219 66.2695331,12.4208978 65.8984375,12.5478516 C65.5273419,12.6748053 65.1855484,12.8701159 64.8730469,13.1337891 C64.5800767,13.4072279 64.3359385,13.7539042 64.140625,14.1738281 C63.9550772,14.5937521 63.8623047,15.1015595 63.8623047,15.6972656 C63.8623047,16.253909 63.9453117,16.7421854 64.1113281,17.1621094 C64.2871103,17.5820333 64.5166001,17.9335923 64.7998047,18.2167969 C65.1025406,18.4902357 65.444334,18.7001946 65.8251953,18.8466797 C66.2158223,18.9931648 66.6259744,19.0664062 67.0556641,19.0664062 C67.4951194,19.0664062 67.8710922,19.0029303 68.1835938,18.8759766 C68.4960953,18.7490228 68.7597646,18.5976571 68.9746094,18.421875 C69.1796885,18.2363272 69.3408197,18.0458994 69.4580078,17.8505859 C69.5751959,17.6455068 69.6484374,17.4697273 69.6777344,17.3232422 L66.484375,17.3232422 L66.484375,15.3164062 L71.9042969,15.3164062 L71.9042969,21 L69.9853516,21 Z M78.0126953,21.234375 C77.4267549,21.234375 76.8798854,21.1464853 76.3720703,20.9707031 C75.8642553,20.8046867 75.4199238,20.550783 75.0390625,20.2089844 C74.6582012,19.8574201 74.3554699,19.4277369 74.1308594,18.9199219 C73.9160146,18.4121068 73.8085938,17.8261752 73.8085938,17.1621094 L73.8085938,10.3652344 L76.1816406,10.3652344 L76.1816406,16.9716797 C76.1816406,17.6162142 76.3427718,18.0996078 76.6650391,18.421875 C76.997072,18.7441422 77.4462862,18.9052734 78.0126953,18.9052734 C78.5888701,18.9052734 79.0429671,18.7441422 79.375,18.421875 C79.6972672,18.0996078 79.8583984,17.6162142 79.8583984,16.9716797 L79.8583984,10.3652344 L82.2314453,10.3652344 L82.2314453,17.1621094 C82.2314453,17.8261752 82.1240245,18.4121068 81.9091797,18.9199219 C81.6845692,19.4277369 81.3818378,19.8574201 81.0009766,20.2089844 C80.6201153,20.550783 80.1757838,20.8046867 79.6679688,20.9707031 C79.150388,21.1464853 78.5986357,21.234375 78.0126953,21.234375 Z M90.8007812,18.8466797 L86.6845703,18.8466797 C86.5576166,19.1982439 86.3037128,19.9160102 85.9228516,21 L83.4326172,21 C84.1064487,19.2226474 85.4443259,15.6777609 87.4462891,10.3652344 L90.1855469,10.3652344 C90.8496127,12.1328213 92.1679589,15.6777078 94.140625,21 L91.5625,21 C91.4355462,20.6386701 91.1816425,19.9209038 90.8007812,18.8466797 Z M87.4755859,16.6787109 L90.0537109,16.6787109 C89.8388661,16.0634735 89.4140657,14.8378998 88.7792969,13.0019531 C88.5546864,13.6171906 88.1201204,14.8427643 87.4755859,16.6787109 Z M98.6669922,17.0449219 L97.8320312,17.0449219 L97.8320312,21 L95.4589844,21 L95.4589844,10.3652344 L99.6777344,10.3652344 C100.195315,10.3652344 100.66406,10.4482414 101.083984,10.6142578 C101.513674,10.7900399 101.879881,11.0292954 102.182617,11.3320312 C102.475587,11.6250015 102.705077,11.9765604 102.871094,12.3867188 C103.03711,12.7871114 103.120117,13.2216773 103.120117,13.6904297 C103.120117,14.4130896 102.934572,15.0380833 102.563477,15.5654297 C102.192381,16.0927761 101.679691,16.4687489 101.025391,16.6933594 L103.178711,21 L100.571289,21 C100.258787,20.3359342 99.6240282,19.017588 98.6669922,17.0449219 Z M99.2236328,14.9941406 C99.7119165,14.9941406 100.083007,14.8769543 100.336914,14.6425781 C100.590822,14.3984363 100.717773,14.0859394 100.717773,13.7050781 C100.717773,13.3046855 100.590822,12.9921886 100.336914,12.7675781 C100.083007,12.533202 99.7119165,12.4160156 99.2236328,12.4160156 L97.8320312,12.4160156 L97.8320312,14.9941406 L99.2236328,14.9941406 Z M108.71582,18.7587891 C109.125979,18.7587891 109.511717,18.7001959 109.873047,18.5830078 C110.234377,18.4658197 110.546874,18.2802747 110.810547,18.0263672 C111.083986,17.7822253 111.298827,17.4648457 111.455078,17.0742188 C111.611329,16.6835918 111.689453,16.224612 111.689453,15.6972656 C111.689453,15.1601536 111.611329,14.696291 111.455078,14.3056641 C111.298827,13.9150371 111.083986,13.5976575 110.810547,13.3535156 C110.546874,13.0898424 110.234377,12.8994146 109.873047,12.7822266 C109.511717,12.6650385 109.125979,12.6064453 108.71582,12.6064453 L107.338867,12.6064453 L107.338867,18.7587891 L108.71582,18.7587891 Z M104.96582,21 L104.96582,10.3652344 L108.818359,10.3652344 C109.619145,10.3652344 110.346676,10.4873035 111.000977,10.7314453 C111.655277,10.9755872 112.216795,11.3271461 112.685547,11.7861328 C113.154299,12.2451195 113.520506,12.8066373 113.78418,13.4707031 C114.038087,14.1347689 114.165039,14.876949 114.165039,15.6972656 C114.165039,16.5078166 114.038087,17.2451139 113.78418,17.9091797 C113.520506,18.5634798 113.154299,19.1201149 112.685547,19.5791016 C112.216795,20.0380882 111.655277,20.3896472 111.000977,20.6337891 C110.336911,20.8779309 109.604496,21 108.803711,21 L104.96582,21 Z M115.981445,21 L115.981445,10.3652344 L118.383789,10.3652344 L118.383789,21 L115.981445,21 Z M127.055664,18.8466797 L122.939453,18.8466797 C122.812499,19.1982439 122.558596,19.9160102 122.177734,21 L119.6875,21 C120.361331,19.2226474 121.699209,15.6777609 123.701172,10.3652344 L126.44043,10.3652344 C127.104496,12.1328213 128.422842,15.6777078 130.395508,21 L127.817383,21 C127.690429,20.6386701 127.436525,19.9209038 127.055664,18.8466797 Z M123.730469,16.6787109 L126.308594,16.6787109 C126.093749,16.0634735 125.668948,14.8378998 125.03418,13.0019531 C124.809569,13.6171906 124.375003,14.8427643 123.730469,16.6787109 Z M138.452148,21 C137.719723,19.8378848 136.259777,17.5088065 134.072266,14.0126953 L134.072266,21 L131.713867,21 L131.713867,10.3652344 L134.599609,10.3652344 C135.263675,11.4394585 136.591787,13.5927573 138.583984,16.8251953 L138.583984,10.3652344 L140.957031,10.3652344 L140.957031,21 L138.452148,21 Z" id="THE-GUARDIAN"></path>
            <path d="M59.2646484,33.0429688 L59.2646484,39 L58.0634766,39 L58.0634766,33.0429688 L55.7587891,33.0429688 L55.7587891,31.9101562 L61.5693359,31.9101562 L61.5693359,33.0429688 L59.2646484,33.0429688 Z M63.4150391,35.4453125 C63.4150391,35.8750021 63.4833978,36.2493474 63.6201172,36.5683594 C63.7568366,36.8873714 63.9358713,37.1542958 64.1572266,37.3691406 C64.3785818,37.5839854 64.6292304,37.7434891 64.9091797,37.8476562 C65.1956395,37.9583339 65.4886053,38.0136719 65.7880859,38.0136719 C66.0875666,38.0136719 66.3805324,37.9583339 66.6669922,37.8476562 C66.953452,37.7434891 67.2073557,37.5839854 67.4287109,37.3691406 C67.6435558,37.1542958 67.8193353,36.8873714 67.9560547,36.5683594 C68.0927741,36.2493474 68.1611328,35.8750021 68.1611328,35.4453125 C68.1611328,35.0221333 68.0927741,34.6510433 67.9560547,34.3320312 C67.8193353,34.0130192 67.6435558,33.7460948 67.4287109,33.53125 C67.2073557,33.3164052 66.953452,33.1569016 66.6669922,33.0527344 C66.3805324,32.9420567 66.0875666,32.8867188 65.7880859,32.8867188 C65.4886053,32.8867188 65.1956395,32.9420567 64.9091797,33.0527344 C64.6292304,33.1569016 64.3785818,33.3164052 64.1572266,33.53125 C63.9358713,33.7460948 63.7568366,34.0130192 63.6201172,34.3320312 C63.4833978,34.6510433 63.4150391,35.0221333 63.4150391,35.4453125 Z M62.1845703,35.4453125 C62.1845703,34.8658825 62.2854808,34.3483096 62.4873047,33.8925781 C62.6826182,33.4368467 62.9495426,33.0527359 63.2880859,32.7402344 C63.6201188,32.4212224 64.0009744,32.1770842 64.4306641,32.0078125 C64.8668642,31.8450513 65.3193336,31.7636719 65.7880859,31.7636719 C66.2503278,31.7636719 66.6995421,31.8450513 67.1357422,32.0078125 C67.5654318,32.1770842 67.9495426,32.4212224 68.2880859,32.7402344 C68.6201188,33.0527359 68.8870433,33.4368467 69.0888672,33.8925781 C69.2906911,34.3483096 69.3916016,34.8658825 69.3916016,35.4453125 C69.3916016,36.0312529 69.2906911,36.5520811 69.0888672,37.0078125 C68.8870433,37.4700544 68.6201188,37.8606755 68.2880859,38.1796875 C67.9495426,38.4921891 67.5654318,38.7330721 67.1357422,38.9023438 C66.6995421,39.065105 66.2503278,39.1464844 65.7880859,39.1464844 C65.3193336,39.1464844 64.8668642,39.065105 64.4306641,38.9023438 C64.0009744,38.7330721 63.6201188,38.4921891 63.2880859,38.1796875 C62.9495426,37.8606755 62.6826182,37.4700544 62.4873047,37.0078125 C62.2854808,36.5520811 62.1845703,36.0312529 62.1845703,35.4453125 Z M73.1708984,35.171875 C73.5485045,35.171875 73.8479807,35.0742197 74.0693359,34.8789062 C74.2841808,34.6835928 74.3916016,34.4166684 74.3916016,34.078125 C74.3916016,33.7395816 74.2841808,33.4694021 74.0693359,33.2675781 C73.8479807,33.0722646 73.5485045,32.9746094 73.1708984,32.9746094 L71.9208984,32.9746094 L71.9208984,35.171875 L73.1708984,35.171875 Z M71.9208984,36.2265625 L71.9208984,39 L70.7197266,39 L70.7197266,31.9101562 L73.3466797,31.9101562 C73.6917335,31.9101562 74.0009752,31.9654942 74.2744141,32.0761719 C74.5543634,32.1868495 74.7919912,32.3365876 74.9873047,32.5253906 C75.1891286,32.7141937 75.3421219,32.942056 75.4462891,33.2089844 C75.5569667,33.4759128 75.6123047,33.7623683 75.6123047,34.0683594 C75.6123047,34.3808609 75.5569667,34.6705716 75.4462891,34.9375 C75.3421219,35.197918 75.1891286,35.4257803 74.9873047,35.6210938 C74.7919912,35.8164072 74.5543634,35.9661453 74.2744141,36.0703125 C74.0009752,36.1744797 73.6917335,36.2265625 73.3466797,36.2265625 L71.9208984,36.2265625 Z M80.2509766,39 L80.2509766,34.0683594 L78.5419922,34.0683594 L78.5419922,33.2382812 C78.7828788,33.2317708 79.0107411,33.1927087 79.2255859,33.1210938 C79.4339203,33.0559893 79.6194653,32.9648443 79.7822266,32.8476562 C79.9384773,32.7304682 80.0654292,32.5904956 80.1630859,32.4277344 C80.2672531,32.2714836 80.338867,32.0989593 80.3779297,31.9101562 L81.4228516,31.9101562 L81.4228516,39 L80.2509766,39 Z M82.6337891,35.4648438 C82.6337891,34.9830705 82.6793615,34.5240907 82.7705078,34.0878906 C82.8616541,33.658201 83.0276681,33.2643247 83.2685547,32.90625 C83.5029309,32.5611962 83.7991519,32.2845062 84.1572266,32.0761719 C84.5153013,31.8678375 84.95475,31.7636719 85.4755859,31.7636719 C85.9964219,31.7636719 86.4391258,31.8678375 86.8037109,32.0761719 C87.1682961,32.2845062 87.4645171,32.5611962 87.6923828,32.90625 C87.926759,33.2643247 88.0927729,33.658201 88.1904297,34.0878906 C88.281576,34.5240907 88.3271484,34.9830705 88.3271484,35.4648438 C88.3271484,35.9401065 88.281576,36.392576 88.1904297,36.8222656 C88.0927729,37.2519553 87.926759,37.6458315 87.6923828,38.0039062 C87.4645171,38.3554705 87.1682961,38.6354156 86.8037109,38.84375 C86.4391258,39.0455739 85.9964219,39.1464844 85.4755859,39.1464844 C84.95475,39.1464844 84.5153013,39.0455739 84.1572266,38.84375 C83.7991519,38.6354156 83.5029309,38.3554705 83.2685547,38.0039062 C83.0341785,37.6458315 82.8714197,37.2519553 82.7802734,36.8222656 C82.6826167,36.392576 82.6337891,35.9401065 82.6337891,35.4648438 Z M83.8154297,35.4648438 C83.8154297,35.9531274 83.857747,36.3795555 83.9423828,36.7441406 C84.0335291,37.1022153 84.1735017,37.3886708 84.3623047,37.6035156 C84.4990241,37.753256 84.6552726,37.8736975 84.8310547,37.9648438 C85.0068368,38.05599 85.2216784,38.1015625 85.4755859,38.1015625 C85.7294935,38.1015625 85.9443351,38.05599 86.1201172,37.9648438 C86.2958993,37.8736975 86.4521478,37.753256 86.5888672,37.6035156 C86.7776702,37.3821604 86.9176428,37.0924497 87.0087891,36.734375 C87.0934249,36.3763003 87.1357422,35.9531274 87.1357422,35.4648438 C87.1357422,34.9700496 87.0934249,34.5436216 87.0087891,34.1855469 C86.9176428,33.8274722 86.7776702,33.5377615 86.5888672,33.3164062 C86.4521478,33.1666659 86.2958993,33.0462244 86.1201172,32.9550781 C85.9443351,32.8639318 85.7294935,32.8183594 85.4755859,32.8183594 C85.2216784,32.8183594 85.0068368,32.8639318 84.8310547,32.9550781 C84.6552726,33.0462244 84.4990241,33.1666659 84.3623047,33.3164062 C84.1735017,33.5312511 84.0335291,33.8177065 83.9423828,34.1757812 C83.857747,34.5403664 83.8154297,34.9700496 83.8154297,35.4648438 Z M94.5771484,31.9101562 C94.9156918,31.9101562 95.2184231,31.9557287 95.4853516,32.046875 C95.75228,32.1445317 95.9801423,32.2779939 96.1689453,32.4472656 C96.3512379,32.6165373 96.4912104,32.8183582 96.5888672,33.0527344 C96.6865239,33.2871105 96.7353516,33.5442694 96.7353516,33.8242188 C96.7353516,34.2018248 96.6376963,34.520832 96.4423828,34.78125 C96.2470693,35.0481784 95.9964208,35.2369786 95.6904297,35.3476562 C96.0680357,35.4518234 96.3740223,35.6536443 96.6083984,35.953125 C96.8427746,36.2591161 96.9599609,36.6204406 96.9599609,37.0371094 C96.9599609,37.3235691 96.9046229,37.5872384 96.7939453,37.828125 C96.6897781,38.0690116 96.54004,38.2773429 96.3447266,38.453125 C96.162434,38.6223967 95.9345717,38.7558589 95.6611328,38.8535156 C95.3876939,38.9511724 95.0849626,39 94.7529297,39 L92.1357422,39 L92.1357422,31.9101562 L94.5771484,31.9101562 Z M94.4208984,34.9082031 C94.7724627,34.9082031 95.0458975,34.8203134 95.2412109,34.6445312 C95.4365244,34.4622387 95.5341797,34.2213557 95.5341797,33.921875 C95.5341797,33.6223943 95.4365244,33.3815113 95.2412109,33.1992188 C95.039387,33.0169262 94.7561867,32.9257812 94.3916016,32.9257812 L93.3271484,32.9257812 L93.3271484,34.9082031 L94.4208984,34.9082031 Z M94.5478516,37.984375 C94.9059263,37.984375 95.1923817,37.8932301 95.4072266,37.7109375 C95.6285818,37.5286449 95.7392578,37.2779964 95.7392578,36.9589844 C95.7392578,36.6529933 95.6416025,36.4023447 95.4462891,36.2070312 C95.2444651,36.0182282 94.9580097,35.9238281 94.5869141,35.9238281 L93.3271484,35.9238281 L93.3271484,37.984375 L94.5478516,37.984375 Z M98.3271484,39 L98.3271484,31.9101562 L102.711914,31.9101562 L102.711914,33.0332031 L99.5283203,33.0332031 L99.5283203,34.9082031 L102.40918,34.9082031 L102.40918,36.0019531 L99.5283203,36.0019531 L99.5283203,37.8769531 L102.711914,37.8769531 L102.711914,39 L98.3271484,39 Z M107.672852,33.9121094 C107.65332,33.8014317 107.614258,33.6809902 107.555664,33.5507812 C107.49707,33.4205723 107.412435,33.3033859 107.301758,33.1992188 C107.19108,33.0950516 107.054363,33.0039066 106.891602,32.9257812 C106.72233,32.8541663 106.517254,32.8183594 106.276367,32.8183594 C106.100585,32.8183594 105.937826,32.847656 105.788086,32.90625 C105.638346,32.964844 105.508139,33.0397131 105.397461,33.1308594 C105.293294,33.2220057 105.211914,33.3294265 105.15332,33.453125 C105.088216,33.5768235 105.055664,33.7070306 105.055664,33.84375 C105.055664,34.0651053 105.124023,34.2571606 105.260742,34.4199219 C105.397462,34.5826831 105.605793,34.6933591 105.885742,34.7519531 L106.911133,34.9570312 C107.536136,35.0872402 108.011392,35.3346336 108.336914,35.6992188 C108.662437,36.0638039 108.825195,36.4967423 108.825195,36.9980469 C108.825195,37.2714857 108.773112,37.5384102 108.668945,37.7988281 C108.558268,38.0592461 108.395509,38.2903636 108.180664,38.4921875 C107.965819,38.687501 107.70215,38.8470046 107.389648,38.9707031 C107.083657,39.0878912 106.725588,39.1464844 106.31543,39.1464844 C105.866209,39.1464844 105.475588,39.0813809 105.143555,38.9511719 C104.811522,38.8209629 104.534832,38.6549489 104.313477,38.453125 C104.092121,38.2382802 103.919597,38.0006523 103.795898,37.7402344 C103.67871,37.4798164 103.607096,37.2226575 103.581055,36.96875 C103.828452,36.8971351 104.202797,36.7897143 104.704102,36.6464844 C104.723633,36.8352874 104.769205,37.0143221 104.84082,37.1835938 C104.912435,37.3528654 105.016601,37.5058587 105.15332,37.6425781 C105.29004,37.7662767 105.456054,37.8671871 105.651367,37.9453125 C105.84017,38.0299483 106.061522,38.0722656 106.31543,38.0722656 C106.745119,38.0722656 107.067382,37.9778655 107.282227,37.7890625 C107.497071,37.6002595 107.604492,37.3658868 107.604492,37.0859375 C107.604492,36.8580718 107.523113,36.6562509 107.360352,36.4804688 C107.19759,36.3111971 106.963218,36.1940107 106.657227,36.1289062 L105.661133,35.9238281 C105.120766,35.80664 104.684572,35.5787777 104.352539,35.2402344 C104.020506,34.901691 103.854492,34.4654975 103.854492,33.9316406 C103.854492,33.63216 103.919596,33.3489597 104.049805,33.0820312 C104.173503,32.8216133 104.346028,32.593751 104.567383,32.3984375 C104.788738,32.1966136 105.045897,32.0403651 105.338867,31.9296875 C105.625327,31.8190099 105.934569,31.7636719 106.266602,31.7636719 C106.689781,31.7636719 107.04785,31.8190099 107.34082,31.9296875 C107.633791,32.0403651 107.877929,32.186848 108.073242,32.3691406 C108.268556,32.5449228 108.421549,32.7369781 108.532227,32.9453125 C108.636394,33.1601573 108.708008,33.3684886 108.74707,33.5703125 C108.506184,33.6484379 108.148114,33.762369 107.672852,33.9121094 Z M112.926758,33.0429688 L112.926758,39 L111.725586,39 L111.725586,33.0429688 L109.420898,33.0429688 L109.420898,31.9101562 L115.231445,31.9101562 L115.231445,33.0429688 L112.926758,33.0429688 Z M57.8828125,45.9101562 L59.1523438,45.9101562 C58.7031228,47.0885476 57.8112046,49.4518052 56.4765625,53 L55.2558594,53 C54.8131488,51.8150982 53.9309962,49.4518406 52.609375,45.9101562 L53.9082031,45.9101562 C54.240236,46.8281296 54.9010367,48.6673039 55.890625,51.4277344 C56.2226579,50.509761 56.8867138,48.6705867 57.8828125,45.9101562 Z M62.2578125,50.1972656 L61.3789062,50.1972656 L61.3789062,53 L60.1679688,53 L60.1679688,45.9101562 L62.8925781,45.9101562 C63.2311215,45.9101562 63.537108,45.9654942 63.8105469,46.0761719 C64.0904962,46.1868495 64.3248688,46.3398428 64.5136719,46.5351562 C64.7024749,46.7304697 64.8489578,46.958332 64.953125,47.21875 C65.0572922,47.479168 65.109375,47.7591131 65.109375,48.0585938 C65.109375,48.5664088 64.9661473,48.9993472 64.6796875,49.3574219 C64.3997382,49.722007 64.0091171,49.96289 63.5078125,50.0800781 C63.8658872,50.731123 64.399736,51.7044206 65.109375,53 L63.7519531,53 C63.5045561,52.5312477 63.0065142,51.5970122 62.2578125,50.1972656 Z M62.6679688,49.1425781 C63.0390644,49.1425781 63.3352854,49.0449229 63.5566406,48.8496094 C63.7779959,48.6477854 63.8886719,48.3841162 63.8886719,48.0585938 C63.8886719,47.7265608 63.7779959,47.4628916 63.5566406,47.2675781 C63.3352854,47.0722646 63.0390644,46.9746094 62.6679688,46.9746094 L61.3789062,46.9746094 L61.3789062,49.1425781 L62.6679688,49.1425781 Z M73.0585938,51.2226562 L70.0605469,51.2226562 C69.9498692,51.5156265 69.7285173,52.1080685 69.3964844,53 L68.1269531,53 C68.589195,51.8150982 69.5104098,49.4518406 70.890625,45.9101562 L72.2773438,45.9101562 C72.7395856,47.0885476 73.6608004,49.4518052 75.0410156,53 L73.7324219,53 C73.6217442,52.7005193 73.3971371,52.1080773 73.0585938,51.2226562 Z M70.4804688,50.109375 L72.6386719,50.109375 C72.4563793,49.6276018 72.09831,48.6608146 71.5644531,47.2089844 C71.3821605,47.6907576 71.020836,48.6575448 70.4804688,50.109375 Z M78.5078125,49.171875 C78.8854186,49.171875 79.1848947,49.0742197 79.40625,48.8789062 C79.6210948,48.6835928 79.7285156,48.4166684 79.7285156,48.078125 C79.7285156,47.7395816 79.6210948,47.4694021 79.40625,47.2675781 C79.1848947,47.0722646 78.8854186,46.9746094 78.5078125,46.9746094 L77.2578125,46.9746094 L77.2578125,49.171875 L78.5078125,49.171875 Z M77.2578125,50.2265625 L77.2578125,53 L76.0566406,53 L76.0566406,45.9101562 L78.6835938,45.9101562 C79.0286476,45.9101562 79.3378893,45.9654942 79.6113281,46.0761719 C79.8912774,46.1868495 80.1289053,46.3365876 80.3242188,46.5253906 C80.5260427,46.7141937 80.6790359,46.942056 80.7832031,47.2089844 C80.8938808,47.4759128 80.9492188,47.7623683 80.9492188,48.0683594 C80.9492188,48.3808609 80.8938808,48.6705716 80.7832031,48.9375 C80.6790359,49.197918 80.5260427,49.4257803 80.3242188,49.6210938 C80.1289053,49.8164072 79.8912774,49.9661453 79.6113281,50.0703125 C79.3378893,50.1744797 79.0286476,50.2265625 78.6835938,50.2265625 L77.2578125,50.2265625 Z M84.5625,49.171875 C84.9401061,49.171875 85.2395822,49.0742197 85.4609375,48.8789062 C85.6757823,48.6835928 85.7832031,48.4166684 85.7832031,48.078125 C85.7832031,47.7395816 85.6757823,47.4694021 85.4609375,47.2675781 C85.2395822,47.0722646 84.9401061,46.9746094 84.5625,46.9746094 L83.3125,46.9746094 L83.3125,49.171875 L84.5625,49.171875 Z M83.3125,50.2265625 L83.3125,53 L82.1113281,53 L82.1113281,45.9101562 L84.7382812,45.9101562 C85.0833351,45.9101562 85.3925768,45.9654942 85.6660156,46.0761719 C85.9459649,46.1868495 86.1835928,46.3365876 86.3789062,46.5253906 C86.5807302,46.7141937 86.7337234,46.942056 86.8378906,47.2089844 C86.9485683,47.4759128 87.0039062,47.7623683 87.0039062,48.0683594 C87.0039062,48.3808609 86.9485683,48.6705716 86.8378906,48.9375 C86.7337234,49.197918 86.5807302,49.4257803 86.3789062,49.6210938 C86.1835928,49.8164072 85.9459649,49.9661453 85.6660156,50.0703125 C85.3925768,50.1744797 85.0833351,50.2265625 84.7382812,50.2265625 L83.3125,50.2265625 Z M91.7109375,47.9121094 C91.6914062,47.8014317 91.652344,47.6809902 91.59375,47.5507812 C91.535156,47.4205723 91.4505214,47.3033859 91.3398438,47.1992188 C91.2291661,47.0950516 91.0924487,47.0039066 90.9296875,46.9257812 C90.7604158,46.8541663 90.5553397,46.8183594 90.3144531,46.8183594 C90.138671,46.8183594 89.9759122,46.847656 89.8261719,46.90625 C89.6764315,46.964844 89.5462245,47.0397131 89.4355469,47.1308594 C89.3313797,47.2220057 89.2500003,47.3294265 89.1914062,47.453125 C89.1263018,47.5768235 89.09375,47.7070306 89.09375,47.84375 C89.09375,48.0651053 89.1621087,48.2571606 89.2988281,48.4199219 C89.4355476,48.5826831 89.6438788,48.6933591 89.9238281,48.7519531 L90.9492188,48.9570312 C91.5742219,49.0872402 92.0494775,49.3346336 92.375,49.6992188 C92.7005225,50.0638039 92.8632812,50.4967423 92.8632812,50.9980469 C92.8632812,51.2714857 92.8111984,51.5384102 92.7070312,51.7988281 C92.5963536,52.0592461 92.4335948,52.2903636 92.21875,52.4921875 C92.0039052,52.687501 91.7402359,52.8470046 91.4277344,52.9707031 C91.1217433,53.0878912 90.7636739,53.1464844 90.3535156,53.1464844 C89.9042946,53.1464844 89.5136735,53.0813809 89.1816406,52.9511719 C88.8496077,52.8209629 88.5729178,52.6549489 88.3515625,52.453125 C88.1302072,52.2382802 87.9576829,52.0006523 87.8339844,51.7402344 C87.7167963,51.4798164 87.6451824,51.2226575 87.6191406,50.96875 C87.8665377,50.8971351 88.2408829,50.7897143 88.7421875,50.6464844 C88.7617188,50.8352874 88.8072913,51.0143221 88.8789062,51.1835938 C88.9505212,51.3528654 89.0546868,51.5058587 89.1914062,51.6425781 C89.3281257,51.7662767 89.4941396,51.8671871 89.6894531,51.9453125 C89.8782562,52.0299483 90.0996081,52.0722656 90.3535156,52.0722656 C90.7832053,52.0722656 91.1054677,51.9778655 91.3203125,51.7890625 C91.5351573,51.6002595 91.6425781,51.3658868 91.6425781,51.0859375 C91.6425781,50.8580718 91.5611987,50.6562509 91.3984375,50.4804688 C91.2356763,50.3111971 91.0013036,50.1940107 90.6953125,50.1289062 L89.6992188,49.9238281 C89.1588515,49.80664 88.7226579,49.5787777 88.390625,49.2402344 C88.0585921,48.901691 87.8925781,48.4654975 87.8925781,47.9316406 C87.8925781,47.63216 87.9576816,47.3489597 88.0878906,47.0820312 C88.2115892,46.8216133 88.3841135,46.593751 88.6054688,46.3984375 C88.826824,46.1966136 89.0839829,46.0403651 89.3769531,45.9296875 C89.6634129,45.8190099 89.9726546,45.7636719 90.3046875,45.7636719 C90.7278667,45.7636719 91.085936,45.8190099 91.3789062,45.9296875 C91.6718765,46.0403651 91.9160146,46.186848 92.1113281,46.3691406 C92.3066416,46.5449228 92.4596349,46.7369781 92.5703125,46.9453125 C92.6744797,47.1601573 92.7460936,47.3684886 92.7851562,47.5703125 C92.5442696,47.6484379 92.1862003,47.762369 91.7109375,47.9121094 Z M96.2519531,48.4199219 C96.2324218,48.3222651 96.2226562,48.2050788 96.2226562,48.0683594 C96.2226562,47.7623683 96.2779942,47.4726576 96.3886719,47.1992188 C96.4993495,46.9192694 96.6621083,46.6718761 96.8769531,46.4570312 C97.0917979,46.2486969 97.352212,46.0794277 97.6582031,45.9492188 C97.9707047,45.8255202 98.3222637,45.7636719 98.7128906,45.7636719 C99.0970071,45.7636719 99.4388006,45.822265 99.7382812,45.9394531 C100.044272,46.0501308 100.298176,46.2063792 100.5,46.4082031 C100.708334,46.6100271 100.867838,46.8443997 100.978516,47.1113281 C101.089193,47.3782565 101.144531,47.6614568 101.144531,47.9609375 C101.144531,48.4296898 101.02409,48.8463523 100.783203,49.2109375 C100.542317,49.5820331 100.216799,49.89453 99.8066406,50.1484375 C99.4941391,50.343751 99.0286489,50.6367168 98.4101562,51.0273438 C98.2278637,51.1445318 98.0651049,51.2747389 97.921875,51.4179688 C97.7851556,51.5611986 97.6907555,51.7272126 97.6386719,51.9160156 L101.183594,51.9160156 L101.183594,53 L96.1542969,53 C96.1608073,52.7005193 96.1933591,52.417319 96.2519531,52.1503906 C96.3170576,51.8899727 96.4147129,51.6425793 96.5449219,51.4082031 C96.6751309,51.1673165 96.8476552,50.9427094 97.0625,50.734375 C97.2708344,50.5260406 97.5279933,50.3242197 97.8339844,50.1289062 C98.0944023,49.966145 98.4850234,49.7154965 99.0058594,49.3769531 C99.3248714,49.1816396 99.559244,48.966798 99.7089844,48.7324219 C99.8587247,48.4980457 99.9335938,48.2473972 99.9335938,47.9804688 C99.9335938,47.824218 99.9075523,47.6777351 99.8554688,47.5410156 C99.8098956,47.3977857 99.7317714,47.2740891 99.6210938,47.1699219 C99.5169266,47.0592442 99.3867195,46.9713545 99.2304688,46.90625 C99.074218,46.8411455 98.8919281,46.8085938 98.6835938,46.8085938 C98.4622385,46.8085938 98.2701831,46.8444007 98.1074219,46.9160156 C97.9446606,46.9876306 97.8111984,47.0852858 97.7070312,47.2089844 C97.6028641,47.3391934 97.5247398,47.4856763 97.4726562,47.6484375 C97.4205727,47.8177092 97.3945312,47.9934887 97.3945312,48.1757812 C97.3945312,48.2343753 97.3977864,48.2929685 97.4042969,48.3515625 L97.4238281,48.5273438 C97.1634102,48.5078124 96.7727891,48.4720055 96.2519531,48.4199219 Z M102.189453,49.4648438 C102.189453,48.9830705 102.235026,48.5240907 102.326172,48.0878906 C102.417318,47.658201 102.583332,47.2643247 102.824219,46.90625 C103.058595,46.5611962 103.354816,46.2845062 103.712891,46.0761719 C104.070965,45.8678375 104.510414,45.7636719 105.03125,45.7636719 C105.552086,45.7636719 105.99479,45.8678375 106.359375,46.0761719 C106.72396,46.2845062 107.020181,46.5611962 107.248047,46.90625 C107.482423,47.2643247 107.648437,47.658201 107.746094,48.0878906 C107.83724,48.5240907 107.882812,48.9830705 107.882812,49.4648438 C107.882812,49.9401065 107.83724,50.392576 107.746094,50.8222656 C107.648437,51.2519553 107.482423,51.6458315 107.248047,52.0039062 C107.020181,52.3554705 106.72396,52.6354156 106.359375,52.84375 C105.99479,53.0455739 105.552086,53.1464844 105.03125,53.1464844 C104.510414,53.1464844 104.070965,53.0455739 103.712891,52.84375 C103.354816,52.6354156 103.058595,52.3554705 102.824219,52.0039062 C102.589843,51.6458315 102.427084,51.2519553 102.335938,50.8222656 C102.238281,50.392576 102.189453,49.9401065 102.189453,49.4648438 Z M103.371094,49.4648438 C103.371094,49.9531274 103.413411,50.3795555 103.498047,50.7441406 C103.589193,51.1022153 103.729166,51.3886708 103.917969,51.6035156 C104.054688,51.753256 104.210937,51.8736975 104.386719,51.9648438 C104.562501,52.05599 104.777342,52.1015625 105.03125,52.1015625 C105.285158,52.1015625 105.499999,52.05599 105.675781,51.9648438 C105.851563,51.8736975 106.007812,51.753256 106.144531,51.6035156 C106.333334,51.3821604 106.473307,51.0924497 106.564453,50.734375 C106.649089,50.3763003 106.691406,49.9531274 106.691406,49.4648438 C106.691406,48.9700496 106.649089,48.5436216 106.564453,48.1855469 C106.473307,47.8274722 106.333334,47.5377615 106.144531,47.3164062 C106.007812,47.1666659 105.851563,47.0462244 105.675781,46.9550781 C105.499999,46.8639318 105.285158,46.8183594 105.03125,46.8183594 C104.777342,46.8183594 104.562501,46.8639318 104.386719,46.9550781 C104.210937,47.0462244 104.054688,47.1666659 103.917969,47.3164062 C103.729166,47.5312511 103.589193,47.8177065 103.498047,48.1757812 C103.413411,48.5403664 103.371094,48.9700496 103.371094,49.4648438 Z M110.324219,53 L110.324219,48.0683594 L108.615234,48.0683594 L108.615234,47.2382812 C108.856121,47.2317708 109.083983,47.1927087 109.298828,47.1210938 C109.507162,47.0559893 109.692708,46.9648443 109.855469,46.8476562 C110.01172,46.7304682 110.138671,46.5904956 110.236328,46.4277344 C110.340495,46.2714836 110.412109,46.0989593 110.451172,45.9101562 L111.496094,45.9101562 L111.496094,53 L110.324219,53 Z M117.580078,47.1113281 C117.436848,47.0397132 117.257814,46.9713545 117.042969,46.90625 C116.828124,46.847656 116.593751,46.8183594 116.339844,46.8183594 C115.988279,46.8183594 115.666017,46.8769525 115.373047,46.9941406 C115.086587,47.1113287 114.835939,47.2773427 114.621094,47.4921875 C114.412759,47.7005219 114.246745,47.9511704 114.123047,48.2441406 C113.992838,48.5371108 113.914714,48.8561181 113.888672,49.2011719 C114.031902,48.9733062 114.256509,48.7714853 114.5625,48.5957031 C114.875002,48.419921 115.259112,48.3320312 115.714844,48.3320312 C116.072918,48.3320312 116.398436,48.3873692 116.691406,48.4980469 C116.984376,48.6087245 117.23828,48.7649729 117.453125,48.9667969 C117.661459,49.1686208 117.827473,49.4192693 117.951172,49.71875 C118.06836,50.0117202 118.126953,50.3470033 118.126953,50.7246094 C118.126953,51.095705 118.058594,51.4309881 117.921875,51.7304688 C117.778645,52.0299494 117.583335,52.2871083 117.335938,52.5019531 C117.095051,52.7102875 116.815106,52.8697911 116.496094,52.9804688 C116.177082,53.0911464 115.838543,53.1464844 115.480469,53.1464844 C115.128904,53.1464844 114.783856,53.084636 114.445312,52.9609375 C114.106769,52.8307285 113.807293,52.6321628 113.546875,52.3652344 C113.286457,52.1048164 113.078126,51.7695333 112.921875,51.359375 C112.765624,50.9492167 112.6875,50.4609403 112.6875,49.8945312 C112.6875,49.2434863 112.7819,48.6608099 112.970703,48.1464844 C113.152996,47.6386693 113.41341,47.205731 113.751953,46.8476562 C114.083986,46.496092 114.477862,46.2259124 114.933594,46.0371094 C115.382815,45.8548168 115.874346,45.7636719 116.408203,45.7636719 C116.733726,45.7636719 117.029947,45.7962236 117.296875,45.8613281 C117.557293,45.9329431 117.765624,46.0273432 117.921875,46.1445312 C117.84375,46.3593761 117.729818,46.6816385 117.580078,47.1113281 Z M114.035156,50.734375 C114.035156,50.9492198 114.077474,51.1445304 114.162109,51.3203125 C114.240235,51.4960946 114.3444,51.6425775 114.474609,51.7597656 C114.611329,51.8769537 114.767577,51.9680986 114.943359,52.0332031 C115.112631,52.0983076 115.291666,52.1308594 115.480469,52.1308594 C115.675782,52.1308594 115.861327,52.0983076 116.037109,52.0332031 C116.212892,51.9680986 116.365885,51.8769537 116.496094,51.7597656 C116.632813,51.6425775 116.740234,51.4960946 116.818359,51.3203125 C116.889974,51.1445304 116.925781,50.9492198 116.925781,50.734375 C116.925781,50.5130197 116.889974,50.314454 116.818359,50.1386719 C116.740234,49.9694002 116.632813,49.8229173 116.496094,49.6992188 C116.365885,49.5820307 116.212892,49.4908857 116.037109,49.4257812 C115.861327,49.3606768 115.675782,49.328125 115.480469,49.328125 C115.285155,49.328125 115.102865,49.3606768 114.933594,49.4257812 C114.757812,49.4908857 114.601563,49.5820307 114.464844,49.6992188 C114.334635,49.8229173 114.230469,49.9694002 114.152344,50.1386719 C114.074218,50.314454 114.035156,50.5130197 114.035156,50.734375 Z" id="TOP-10-BEST-VR-APPS"></path>
        </g>
    </g>
</svg>